<svg width="64" height="64" viewBox="0 0 64 64" fill="none" xmlns="http://www.w3.org/2000/svg">
<path d="M13 8.00201C11.892 8.00201 11 8.89401 11 10.002H8.7852C7.79592 10.002 7 10.894 7 12.002V18.002C7 19.11 7.79588 20.002 8.7852 20.002H55.2152C56.2045 20.002 57.0004 19.11 57.0004 18.002V12.002C57.0004 10.894 56.2045 10.002 55.2152 10.002H31.0002C31.0002 8.89401 30.1082 8.00201 29.0002 8.00201H13Z" fill="#686868"/>
<path opacity="0.15" d="M13 8.00201C11.892 8.00201 11 8.89401 11 10.002H8.7852C7.79592 10.002 7 10.894 7 12.002V18.002C7 19.11 7.79588 20.002 8.7852 20.002H55.2152C56.2045 20.002 57.0004 19.11 57.0004 18.002V12.002C57.0004 10.894 56.2045 10.002 55.2152 10.002H31.0002C31.0002 8.89401 30.1082 8.00201 29.0002 8.00201H13Z" fill="black"/>
<path d="M53.12 13.04H10.88C10.394 13.04 10 13.4878 10 14.04V19.04C10 19.5923 10.394 20.04 10.88 20.04H53.12C53.606 20.04 54 19.5923 54 19.04V14.04C54 13.4878 53.606 13.04 53.12 13.04Z" fill="white"/>
<path opacity="0.1" d="M57 15.04H7V17.04H57V15.04Z" fill="url(#paint0_linear_1_27)"/>
<path opacity="0.1" d="M57 56.04H7V61.04H57V56.04Z" fill="url(#paint1_radial_1_27)"/>
<path d="M58 17.04H6C4.89543 17.04 4 17.9355 4 19.0401V54.0399C4 55.1445 4.89543 56.04 6 56.04H58C59.1046 56.04 60 55.1445 60 54.0399V19.0401C60 17.9355 59.1046 17.04 58 17.04Z" fill="#686868"/>
<path opacity="0.15" d="M4 53.039V54.039C4 55.1471 4.892 56.039 6 56.039H58C59.108 56.039 60 55.1471 60 54.039V53.039C60 54.147 59.108 55.039 58 55.039H6C4.892 55.039 4 54.147 4 53.039Z" fill="black"/>
<path fill-rule="evenodd" clip-rule="evenodd" d="M46 31C40.4777 31 36 35.5895 36 41.255C36 45.7865 38.8661 49.626 42.8393 50.9832C43.3393 51.077 43.5223 50.76 43.5223 50.4876C43.5223 50.2421 43.5134 49.5992 43.5089 48.742C40.7277 49.3626 40.1384 47.3669 40.1384 47.3669C39.683 46.1838 39.0268 45.8669 39.0268 45.8669C38.1205 45.2284 39.0938 45.2418 39.0938 45.2418C40.0982 45.3133 40.625 46.2999 40.625 46.2999C41.5179 47.867 42.9643 47.416 43.5357 47.1526C43.625 46.4919 43.8839 46.0365 44.1696 45.782C41.9509 45.5231 39.6161 44.6436 39.6161 40.7148C39.6161 39.5942 40.0045 38.679 40.6429 37.9647C40.5402 37.7057 40.1964 36.661 40.7411 35.2502C40.7411 35.2502 41.5804 34.9734 43.4911 36.2994C44.2902 36.0717 45.1429 35.9601 45.9955 35.9556C46.8437 35.9601 47.7009 36.0717 48.5 36.2994C50.4107 34.9734 51.2455 35.2502 51.2455 35.2502C51.7902 36.661 51.4464 37.7057 51.3438 37.9647C51.9821 38.6834 52.3705 39.5987 52.3705 40.7148C52.3705 44.6525 50.0313 45.5186 47.8036 45.7731C48.1607 46.0901 48.4821 46.7151 48.4821 47.6705C48.4821 49.0411 48.4687 50.1483 48.4687 50.4832C48.4687 50.7555 48.6473 51.077 49.1563 50.9743C53.1384 49.6215 56 45.782 56 41.255C56 35.5895 51.5223 31 46 31Z" fill="white"/>
<defs>
<linearGradient id="paint0_linear_1_27" x1="31.0742" y1="17.04" x2="31.0742" y2="15.04" gradientUnits="userSpaceOnUse">
<stop/>
<stop offset="1" stop-opacity="0"/>
</linearGradient>
<radialGradient id="paint1_radial_1_27" cx="0" cy="0" r="1" gradientUnits="userSpaceOnUse" gradientTransform="translate(32 55.987) rotate(180) scale(25 2.00002)">
<stop/>
<stop offset="1" stop-opacity="0"/>
</radialGradient>
</defs>
</svg>
